PathFileType	3	(X/Y/Z)	D:\minhoCalibration\240510\subject3_KPNP\preferred\preferred18.trc
DataRate	CameraRate	NumFrames	NumMarkers	Units	OrigDataRate	OrigDataStartFrame	OrigNumFrames
200.0	200.0	18	10	mm	200.0	125	116	
Frame#	Time	Left_Ankle_Outer1			Left_Ankle_Inner1			Left_Knee_Outer1			Left_Knee_Inner1			Left_Wrist1			Right_Wrist1			Right_Knee_Inner1			Right_Knee_Outer1			Right_Ankle_Inner1			Right_Ankle_Outer1			
		X1	Y1	Z1	X2	Y2	Z2	X3	Y3	Z3	X4	Y4	Z4	X5	Y5	Z5	X6	Y6	Z6	X7	Y7	Z7	X8	Y8	Z8	X9	Y9	Z9	X10	Y10	Z10	
125	0.615	-340.55667	91.305649	-535.56482	-395.97241	101.45033	-539.58582	-272.80716	503.28296	-386.27991	-377.46942	504.59845	-376.86957	-235.22562	870.33252	-552.79767	-586.37347	906.63629	-631.40912	-640.73303	443.37497	-648.77002	-715.73145	521.15509	-700.10712	-511.28387	261.14493	-1017.3987	-604.29004	287.3009	-1059.8435
126	0.62	-339.92743	91.701187	-535.34241	-395.57608	101.79344	-539.01825	-270.75421	504.01926	-387.47778	-375.1424	505.49722	-376.92981	-230.91226	873.33057	-551.90887	-584.58057	911.64417	-620.23724	-639.10852	447.01501	-629.98383	-718.47711	524.33563	-677.66614	-516.68915	277.77045	-1005.1607	-612.11798	299.40308	-1045.0663
127	0.625	-339.16794	92.292793	-535.14935	-394.88339	102.37769	-538.84253	-268.67722	504.82434	-389.07291	-372.74237	506.56134	-377.52118	-227.18433	876.30688	-551.69501	-582.32935	916.94672	-608.88257	-637.17816	451.49594	-610.0575	-720.83887	528.08081	-654.48822	-522.60077	294.23361	-991.36694	-620.38525	311.89658	-1028.5549
128	0.63	-338.34442	93.094032	-534.99786	-394.22116	103.32748	-538.63348	-266.3912	505.78821	-391.06958	-370.41754	508.04681	-378.12741	-222.97977	879.31726	-551.78302	-580.49707	922.56885	-596.73334	-634.30432	456.12515	-590.14026	-722.56989	532.4754	-630.81482	-528.74963	310.51239	-976.17212	-628.32428	326.16559	-1011.2874
129	0.635	-337.84137	93.933304	-534.7381	-393.3804	104.5322	-538.56555	-264.24118	506.87616	-393.24405	-368.20813	508.88855	-379.59537	-218.75343	882.38361	-552.49707	-577.51227	928.13702	-585.41016	-630.32269	461.02136	-570.19165	-723.56592	537.71112	-606.5036	-535.25	326.42377	-959.89935	-634.84033	341.70142	-992.87042
130	0.64	-337.42319	94.788757	-534.49323	-392.76767	105.6133	-538.20575	-262.54257	507.90005	-395.36185	-365.99695	510.33701	-380.8916	-214.45683	885.38873	-553.74811	-572.86816	934.90393	-573.89893	-626.19696	466.82675	-550.24396	-724.08038	543.71393	-580.1394	-541.74878	342.17108	-942.53528	-641.74591	358.04883	-973.22882
131	0.645	-336.74048	95.837112	-534.14148	-392.27148	106.93083	-537.75122	-260.83841	509.13696	-397.54623	-363.69739	511.56909	-382.18616	-209.85893	888.44769	-555.63733	-568.87585	941.25983	-562.54419	-621.74701	473.17966	-530.17883	-723.69965	550.62958	-553.92889	-548.52045	357.49402	-924.44904	-648.89154	373.05832	-954.11163
132	0.65	-336.14792	97.198837	-533.70361	-391.72177	108.34453	-537.09247	-259.08435	510.68295	-399.75726	-362.12946	513.37323	-383.31744	-206.26978	891.27533	-557.54993	-564.40314	947.81323	-551.78638	-617.22772	480.14563	-509.97986	-722.68817	558.80176	-527.65894	-555.53394	372.79333	-905.30719	-656.64215	388.85876	-932.94427
133	0.655	-335.55432	98.724442	-533.23352	-391.30307	109.86829	-536.33246	-257.39127	512.289	-401.7962	-360.47449	515.41779	-384.61005	-202.47191	893.91345	-560.04517	-559.7652	954.42224	-541.08777	-612.89691	487.73822	-489.39047	-720.73499	567.67072	-500.94855	-562.77441	388.03226	-885.32141	-664.49323	405.16467	-910.91827
134	0.66	-335.16107	100.21716	-532.57043	-391.41345	111.1985	-535.02161	-255.65964	514.21552	-403.68225	-358.11838	517.25708	-386.27789	-198.35413	896.87579	-563.0946	-553.53424	961.62299	-531.06885	-608.63544	496.19916	-468.16495	-717.90125	577.1955	-473.91656	-570.00385	403.22171	-864.9281	-672.45715	421.77063	-889.12689
135	0.665	-334.67181	102.03901	-531.94788	-390.57034	113.2056	-534.72394	-253.95271	516.28168	-405.36786	-356.3161	519.72406	-387.51004	-194.41364	899.61627	-566.49646	-547.08099	969.06836	-521.96777	-604.5636	505.67215	-446.3924	-714.11713	587.94836	-446.79926	-578.16034	418.25552	-843.68646	-680.27313	441.33698	-862.3219
136	0.67	-334.09457	103.99911	-531.16956	-390.40982	115.17643	-533.40649	-251.93217	518.47778	-407.0228	-353.92682	521.77252	-389.13501	-190.63203	902.36493	-570.07581	-540.86444	976.6817	-513.4328	-600.62201	516.24573	-424.08029	-709.1662	600.20575	-420.87555	-586.44867	433.4664	-822.26691	-688.82373	456.07492	-839.52094
137	0.675	-333.96997	105.80045	-530.38739	-390.28952	117.56416	-532.19598	-249.55957	520.96478	-408.73584	-351.33044	524.81274	-390.24124	-186.87956	904.92633	-574.20825	-533.46826	984.55188	-505.65558	-596.21332	527.87311	-399.94577	-704.5993	613.65576	-394.41534	-595.24194	448.7774	-800.32007	-696.92651	474.38287	-812.30756
138	0.68	-333.77631	107.78851	-529.57019	-390.26605	119.8198	-530.66113	-247.04068	523.47394	-410.43356	-348.70706	527.05707	-391.5159	-183.05241	907.60394	-578.80756	-526.75323	992.76111	-498.00168	-591.6933	540.76715	-376.12381	-698.95715	628.4278	-369.30264	-604.27228	464.02042	-777.83667	-706.3291	491.69254	-785.21423
139	0.685	-333.65668	109.69585	-528.6156	-390.35242	122.21893	-529.17743	-244.31084	526.0498	-412.25711	-345.81772	530.20392	-392.57632	-179.50633	910.06073	-583.77454	-519.57886	1000.9451	-491.33835	-586.67194	555.02344	-352.94531	-692.14496	643.84875	-345.45905	-614	479.23813	-754.77728	-716.00397	508.15768	-758.28864
140	0.69	-333.72864	111.65556	-527.8028	-390.33435	124.5026	-527.38245	-241.0722	528.61072	-414.31757	-342.3696	532.99884	-393.09302	-177.01094	912.38983	-588.71405	-512.29932	1009.0967	-485.37393	-581.44141	569.72473	-329.09592	-685.34314	660.20862	-321.332	-624.16241	494.28812	-731.08594	-725.58105	525.53174	-730.14874
141	0.695	-333.57309	113.38421	-526.88904	-390.42722	126.91878	-525.63043	-237.60123	531.16138	-416.66815	-338.84781	536.00745	-393.67365	-174.27704	914.51337	-594.17065	-504.98557	1017.2901	-479.94717	-574.95062	585.67572	-305.02121	-677.18048	678.2868	-298.01434	-634.38336	509.341	-706.87555	-734.71997	543.35907	-701.30017
142	0.7	-333.72607	115.17593	-525.95984	-390.47205	129.11066	-523.79706	-233.85652	533.49756	-419.39233	-334.2453	538.78345	-394.15067	-171.29756	916.68042	-599.9519	-497.58676	1025.4302	-474.9747	-568.2818	602.45807	-282.42258	-668.87415	696.67194	-274.96176	-645.08801	524.06989	-681.9303	-745.88318	560.03656	-672.33398
